<svg width="194" height="56" viewBox="0 0 194 56" fill="none" xmlns="http://www.w3.org/2000/svg">
<g filter="url(#filter0_b_1872_2393)">
<path d="M4.57764e-05 5.45133H159.5L168 0H184.5H194L194 56H29.5L21.5 51.5398H4.57764e-05V47.0796V5.45133Z" fill="white"/>
<path d="M21.5 50.5398H1.00005V47.0796V6.45133H159.5H159.793L160.04 6.29309L168.293 1H184.5H193L193 55H29.7599L21.987 50.6664L21.7599 50.5398H21.5Z" stroke="url(#paint0_linear_1872_2393)" stroke-width="2"/>
</g>
<path d="M14.5 10.9026L5.00005 19.8229V10.9026H14.5Z" fill="black"/>
<path d="M180 51.0442L189.5 42.1239L189.5 51.0442L180 51.0442Z" fill="black"/>
<defs>
<filter id="filter0_b_1872_2393" x="-34" y="-34" width="262" height="124" filterUnits="userSpaceOnUse" color-interpolation-filters="sRGB">
<feFlood flood-opacity="0" result="BackgroundImageFix"/>
<feGaussianBlur in="BackgroundImageFix" stdDeviation="17"/>
<feComposite in2="SourceAlpha" operator="in" result="effect1_backgroundBlur_1872_2393"/>
<feBlend mode="normal" in="SourceGraphic" in2="effect1_backgroundBlur_1872_2393" result="shape"/>
</filter>
<linearGradient id="paint0_linear_1872_2393" x1="60.5001" y1="101.593" x2="113.679" y2="-31.549" gradientUnits="userSpaceOnUse">
<stop stop-color="white"/>
<stop offset="0.876856" stop-color="white" stop-opacity="0"/>
</linearGradient>
</defs>
</svg>
