<svg width="462" height="130" viewBox="0 0 462 130" fill="none" xmlns="http://www.w3.org/2000/svg">
<g filter="url(#filter0_b_2088_2387)">
<path d="M462 13.1859H82.1598L61.9176 0H22.6237H-6.10352e-05L9.15527e-05 130H391.748L410.799 119.212H462V108.423L462 13.1859Z" fill="url(#paint0_linear_2088_2387)" fill-opacity="0.15"/>
<path d="M410.799 118.153H460.941V108.423L460.941 14.2447H82.1598C81.9546 14.2447 81.7538 14.185 81.5819 14.073L61.6031 1.05881H22.6237H1.05875L1.0589 128.941H391.469L410.277 118.29C410.436 118.2 410.616 118.153 410.799 118.153Z" stroke="url(#paint1_linear_2088_2387)" stroke-width="2.11761" stroke-linecap="round" stroke-linejoin="round"/>
</g>
<defs>
<filter id="filter0_b_2088_2387" x="-33.8495" y="-33.8495" width="529.699" height="197.699" filterUnits="userSpaceOnUse" color-interpolation-filters="sRGB">
<feFlood flood-opacity="0" result="BackgroundImageFix"/>
<feGaussianBlur in="BackgroundImageFix" stdDeviation="16.9248"/>
<feComposite in2="SourceAlpha" operator="in" result="effect1_backgroundBlur_2088_2387"/>
<feBlend mode="normal" in="SourceGraphic" in2="effect1_backgroundBlur_2088_2387" result="shape"/>
</filter>
<linearGradient id="paint0_linear_2088_2387" x1="36.75" y1="-199.858" x2="463.579" y2="212.493" gradientUnits="userSpaceOnUse">
<stop stop-color="white" stop-opacity="0"/>
<stop offset="1" stop-color="white"/>
</linearGradient>
<linearGradient id="paint1_linear_2088_2387" x1="414.75" y1="-62.784" x2="264.076" y2="124.462" gradientUnits="userSpaceOnUse">
<stop stop-color="white" stop-opacity="0.33"/>
<stop offset="1" stop-color="white" stop-opacity="0"/>
</linearGradient>
</defs>
</svg>
